<svg xmlns="http://www.w3.org/2000/svg" xmlns:xlink="http://www.w3.org/1999/xlink" width="389" height="440" viewBox="0 0 389 440">
  <defs>
    <style>
      .cls-1 {
        clip-path: url(#clip-logo-tjro);
      }

      .cls-2 {
        fill: #fff;
        font-size: 166px;
        font-family: SegoeUI-Semibold, Segoe UI;
        font-weight: 600;
      }

      .cls-3 {
        fill: #2cd697;
        fill-rule: evenodd;
      }
    </style>
    <clipPath id="clip-logo-tjro">
      <rect width="389" height="440"/>
    </clipPath>
  </defs>
  <g id="logo-tjro" class="cls-1">
    <g id="Grupo_213" data-name="Grupo 213" transform="translate(-922 -341.082)">
      <text id="TJRO" class="cls-2" transform="translate(929 769.249)"><tspan x="0" y="0">TJRO</tspan></text>
      <g id="logo" transform="translate(1002.16 348.082)">
        <path id="Caminho_1" data-name="Caminho 1" class="cls-3" d="M231.932,116.017A115.966,115.966,0,1,1,116.092,0,115.772,115.772,0,0,1,231.932,116.017Zm-1.475-.149c-.181-63.146-51.7-114.576-114.589-114.394C52.723,1.656,1.292,53.174,1.474,116.062c.182,63.146,51.7,114.577,114.589,114.394C179.21,230.275,230.64,178.757,230.457,115.868Z" transform="translate(0.001 0.001)"/>
        <path id="Caminho_2" data-name="Caminho 2" class="cls-3" d="M268.245,250.621q-30.778,0-61.556,0c-4.857,0-5.413-.562-5.427-5.367,0-.809-.012-1.618,0-2.426.071-3.515.773-4.253,4.32-4.257,17.688-.019,35.377-.069,53.065.048,2.862.019,3.816-.726,3.81-3.7q-.136-58.219-.019-116.439c0-2.282-.826-3.4-2.709-4.764a36.183,36.183,0,0,1-7.507-7.644c-1.174-1.563-2.095-2.3-4.041-2.286-14.049.073-28.1.043-42.149.035-4.161,0-4.739-.589-4.775-4.71-.064-7.348-.064-7.348,7.336-7.348,13.14,0,26.28-.046,39.419.044a4.187,4.187,0,0,0,4.394-2.688,17,17,0,0,1,15.866-9.851c7.28-.047,12.83,3.367,16.163,9.867a4.189,4.189,0,0,0,4.394,2.676c13.947-.1,27.9-.055,41.845-.043,4.327,0,5.032.739,5.064,5.144,0,.707.012,1.415-.005,2.123-.1,3.948-.928,4.784-4.851,4.787-13.948.009-27.9.045-41.845-.039-2.24-.014-3.406.679-4.778,2.606a38.754,38.754,0,0,1-7.636,7.5c-1.288,1.02-2.182,1.7-2.181,3.479q.063,59.13-.019,118.26c0,2.6,1.11,2.969,3.279,2.962q26.23-.079,52.458-.026c4.965,0,5.278.33,5.286,5.4,0,1.113-.014,2.225-.033,3.336a3.056,3.056,0,0,1-3.194,3.293c-.905.07-1.818.035-2.727.035ZM268.2,105.283a7.445,7.445,0,0,0,7.78-7.515,7.746,7.746,0,0,0-7.6-7.8,7.878,7.878,0,0,0-7.655,7.824A7.467,7.467,0,0,0,268.2,105.283Z" transform="translate(-152.631 -60.114)"/>
        <path id="Caminho_3" data-name="Caminho 3" class="cls-3" d="M92.679,332.916a66.424,66.424,0,0,1-27.78-6.349,31.135,31.135,0,0,1-12.623-11.049c-3.37-5.028-4.359-10.2-1.147-15.9,6.7-11.879,13.152-23.9,19.7-35.862q7.49-13.69,14.953-27.4c1.372-2.521,3.063-4.558,6.254-4.511,3.215.046,4.71,2.24,6.074,4.745,10.876,19.958,21.929,39.821,32.642,59.866,6,11.237,3.878,19.252-6.562,26.829-7.56,5.487-16.326,7.8-25.414,9.091C96.479,332.707,94.151,332.792,92.679,332.916Zm-.743-95.1L55.241,305.085h73.4C116.385,282.621,104.37,260.6,91.936,237.814Z" transform="translate(-37.29 -175.837)"/>
        <path id="Caminho_4" data-name="Caminho 4" class="cls-3" d="M597.91,332.3c-11.312-.423-22.151-2.916-31.747-9.3a30.54,30.54,0,0,1-7.322-7.134c-3.742-5.018-4.821-10.431-1.526-16.389,11.777-21.294,23.347-42.7,35.11-64,2.9-5.25,8.477-5.136,11.392.138,11.334,20.5,22.421,41.142,33.944,61.537,6.46,11.436.167,20.45-7.638,25.7C620.486,329.324,609.531,331.9,597.91,332.3Zm-36.546-27.457h73.359c-12.282-22.5-24.317-44.545-36.692-67.212Z" transform="translate(-421.181 -175.641)"/>
      </g>
    </g>
  </g>
</svg>
